<svg xmlns="http://www.w3.org/2000/svg" viewBox="0 0 512 512">
  <defs>
    <radialGradient id="face" cx="32%" cy="24%" r="72%">
      <stop offset="0%" stop-color="#fdfefe"/>
      <stop offset="48%" stop-color="#d7dde7"/>
      <stop offset="100%" stop-color="#7f8897"/>
    </radialGradient>
    <linearGradient id="bust" x1="0%" y1="0%" x2="100%" y2="100%">
      <stop offset="0%" stop-color="#697383"/>
      <stop offset="100%" stop-color="#2c3440"/>
    </linearGradient>
    <linearGradient id="shine" x1="0%" y1="0%" x2="100%" y2="100%">
      <stop offset="0%" stop-color="rgba(255,255,255,.72)"/>
      <stop offset="100%" stop-color="rgba(255,255,255,0)"/>
    </linearGradient>
    <path id="topArc" d="M 84 276 A 172 172 0 0 1 428 276"/>
    <path id="bottomArc" d="M 104 252 A 152 152 0 0 0 408 252"/>
  </defs>
  <circle cx="256" cy="256" r="212" fill="url(#face)"/>
  <circle cx="256" cy="256" r="196" fill="none" stroke="rgba(73,83,96,.55)" stroke-width="8"/>
  <circle cx="256" cy="256" r="156" fill="none" stroke="rgba(255,255,255,.28)" stroke-width="5"/>

  <g fill="#3a4350">
    <text font-size="34" font-family="Georgia, serif" letter-spacing="5">
      <textPath href="#topArc" startOffset="50%" text-anchor="middle">LIBERTY</textPath>
    </text>
    <text x="256" y="375" font-size="28" font-family="Georgia, serif" text-anchor="middle">1964</text>
    <text font-size="17" font-family="Arial, sans-serif" letter-spacing="2.4">
      <textPath href="#bottomArc" startOffset="50%" text-anchor="middle">IN GOD WE TRUST</textPath>
    </text>
  </g>

  <g transform="translate(8 6)">
    <path d="M170 332c28-37 55-58 99-73 28-10 45-9 67 1 3 13 5 28 4 43-40 29-74 42-120 39-20-1-37-4-50-10Z" fill="url(#bust)"/>
    <path d="M203 177c18-33 60-55 95-51 29 3 48 26 52 56 3 26-1 52-17 74-16 21-41 39-67 45-28 6-51 1-66-16-18-20-22-47-17-72 4-15 10-26 20-36Z" fill="url(#bust)"/>
    <path d="M192 176c23-14 40-31 53-53 31-1 62 10 85 28 6 5 13 15 16 26-24 8-43 9-65 7-16-1-33-4-46 0-16 5-30 13-43 26-8-10-8-22 0-34Z" fill="#4a5362"/>
    <path d="M255 194c17-10 35-14 49-14 9 0 15 1 24 5-6 10-14 21-24 30-15 15-36 27-57 33-18 5-38 6-48 1 14-16 32-41 56-55Z" fill="rgba(255,255,255,.18)"/>
    <path d="M248 205c-14 5-30 19-39 34-8 14-10 31-8 48 1 6 4 13 8 18-15-14-23-40-19-64 4-21 16-39 35-48 12-6 25-7 37-3-5 4-9 8-14 15Z" fill="rgba(255,255,255,.13)"/>
  </g>

  <ellipse cx="210" cy="168" rx="92" ry="50" transform="rotate(-22 210 168)" fill="rgba(255,255,255,.18)"/>
</svg>
