<svg xmlns="http://www.w3.org/2000/svg" viewBox="0 0 512 512">
  <defs>
    <radialGradient id="face" cx="30%" cy="22%" r="74%">
      <stop offset="0%" stop-color="#ffffff"/>
      <stop offset="50%" stop-color="#d9dfe8"/>
      <stop offset="100%" stop-color="#808998"/>
    </radialGradient>
    <path id="topArc" d="M 78 278 A 178 178 0 0 1 434 278"/>
    <path id="bottomArc" d="M 104 248 A 152 152 0 0 0 408 248"/>
  </defs>
  <circle cx="256" cy="256" r="212" fill="url(#face)"/>
  <circle cx="256" cy="256" r="196" fill="none" stroke="rgba(73,83,96,.55)" stroke-width="8"/>
  <circle cx="256" cy="256" r="156" fill="none" stroke="rgba(255,255,255,.28)" stroke-width="5"/>

  <g fill="#374151">
    <text font-size="22" font-family="Arial, sans-serif" letter-spacing="2.8">
      <textPath href="#topArc" startOffset="50%" text-anchor="middle">UNITED STATES OF AMERICA</textPath>
    </text>
    <text x="256" y="370" font-size="30" font-family="Georgia, serif" text-anchor="middle" letter-spacing="3">HALF DOLLAR</text>
    <text x="256" y="337" font-size="16" font-family="Arial, sans-serif" text-anchor="middle" letter-spacing="2.3">E PLURIBUS UNUM</text>
  </g>

  <g fill="#39424f">
    <path d="M163 221c-20-43-55-64-96-59 23 28 51 47 94 56l2 3c-32 7-58 20-82 45 37 3 70-7 97-30l3 1c-8 24-9 47-1 76 22-25 36-54 39-87l2-2c6 33 20 62 42 86 6-26 4-50-3-75l3-1c26 24 58 34 96 31-23-25-49-40-81-46l1-3c43-9 72-28 95-56-42-5-77 16-96 59-40-21-80-21-121 2Z"/>
    <path d="M256 178c18 0 32 16 32 36 0 22-12 42-32 58-20-16-32-36-32-58 0-20 14-36 32-36Z" fill="#4b5563"/>
    <path d="M240 236h32v72h-32z" fill="#4b5563"/>
    <path d="M216 218c10 7 22 13 40 16 18-3 30-9 40-16l-7 67c-13 5-23 7-33 8-10-1-20-3-33-8l-7-67Z" fill="rgba(255,255,255,.13)"/>
    <path d="M208 300c16 8 32 12 48 12s32-4 48-12v22c-15 6-31 9-48 9s-33-3-48-9v-22Z"/>
    <path d="M205 322h102l-7 15H212z"/>
  </g>

  <g fill="#374151">
    <circle cx="256" cy="96" r="8"/>
    <circle cx="332" cy="114" r="8"/>
    <circle cx="392" cy="166" r="8"/>
    <circle cx="417" cy="240" r="8"/>
    <circle cx="405" cy="317" r="8"/>
    <circle cx="360" cy="382" r="8"/>
    <circle cx="291" cy="416" r="8"/>
    <circle cx="221" cy="416" r="8"/>
    <circle cx="152" cy="382" r="8"/>
    <circle cx="107" cy="317" r="8"/>
    <circle cx="95" cy="240" r="8"/>
    <circle cx="120" cy="166" r="8"/>
    <circle cx="180" cy="114" r="8"/>
  </g>

  <ellipse cx="214" cy="152" rx="104" ry="58" transform="rotate(-22 214 152)" fill="rgba(255,255,255,.16)"/>
</svg>
